<svg width="32" height="32" viewBox="0 0 32 32" fill="none" xmlns="http://www.w3.org/2000/svg">
<path d="M15.9859 0.68242C7.2918 0.678905 0.25 7.71719 0.25 16.4043C0.25 23.2738 4.65508 29.1133 10.7898 31.2578C11.616 31.4652 11.4895 30.8781 11.4895 30.4773V27.7527C6.71875 28.3117 6.52539 25.1547 6.20547 24.6273C5.55859 23.5234 4.0293 23.2422 4.48633 22.7148C5.57266 22.1559 6.68008 22.8555 7.96328 24.7504C8.89141 26.125 10.702 25.893 11.6195 25.6645C11.8199 24.8383 12.2488 24.1 12.8395 23.5269C7.89648 22.641 5.83633 19.6246 5.83633 16.0387C5.83633 14.2984 6.40938 12.6988 7.53438 11.4086C6.81719 9.28164 7.60117 7.46054 7.70664 7.18984C9.74922 7.00703 11.8727 8.65234 12.0379 8.78242C13.198 8.46953 14.5234 8.3043 16.007 8.3043C17.4977 8.3043 18.8266 8.47656 19.9973 8.79297C20.3945 8.49062 22.3633 7.07734 24.2617 7.24961C24.3637 7.52031 25.1301 9.29922 24.4551 11.398C25.5941 12.6918 26.1742 14.3055 26.1742 16.0492C26.1742 19.6422 24.1 22.6621 19.143 23.534C19.5676 23.9515 19.9047 24.4495 20.1347 24.9988C20.3646 25.5481 20.4829 26.1377 20.4824 26.7332V30.6883C20.5105 31.0047 20.4824 31.3176 21.0098 31.3176C27.2359 29.2187 31.7184 23.3371 31.7184 16.4078C31.7184 7.71719 24.673 0.68242 15.9859 0.68242V0.68242Z" fill="black"/>
</svg>
